<?xml version="1.0"?>
<svg xmlns="http://www.w3.org/2000/svg" xmlns:xlink="http://www.w3.org/1999/xlink" version="1.1" id="Layer_1" x="0px" y="0px" viewBox="0 0 500.8 500.8" style="enable-background:new 0 0 500.8 500.8;" xml:space="preserve" width="512px" height="512px" class=""><g><circle style="fill:#FF6600" cx="250.3" cy="244" r="244" data-original="#F15249" class=""/><path style="fill:#FF7500" d="M423.1,71.2c95.2,95.2,95.2,249.6,0,344.8s-249.6,95.2-344.8,0" data-original="#C93131" class="" data-old_color="#FF4700"/><polygon style="fill:#FCFBE6" points="79.9,81.6 250.3,14.4 420.7,81.6 385.5,235.2 250.3,302.4 115.1,235.2 " data-original="#FCFBE6" class=""/><polygon style="fill:#FDFCF3" points="406.3,146.4 420.7,81.6 250.3,133.6 79.9,81.6 95.1,146.4 51.1,413.6 250.3,500.8   449.5,413.6 " data-original="#EDEBD3" class="" data-old_color="#EDEBD3"/><polygon style="fill:#EBE7DC" points="389.5,224 423.1,252.8 406.3,146.4 419.9,85.6 356.7,159.2 308.7,166.4 271.1,213.6   250.3,295.2 229.5,213.6 191.9,166.4 143.9,159.2 80.7,84.8 95.1,146.4 77.5,252.8 111.1,224 250.3,386.4 250.3,386.4 " data-original="#DDDAC0" class="" data-old_color="#DDDAC0"/><polygon style="fill:#CDC9B5" points="311.1,253.6 249.5,384.8 188.7,253.6 249.5,208.8 " data-original="#C6C2A7" class="active-path"/><polyline style="fill:#FCCC32;" points="249.5,305.6 303.9,249.6 280.7,229.6 249.5,181.6 249.5,184 249.5,181.6 219.1,229.6   195.1,249.6 244.7,300.8 " data-original="#FCCC32" class=""/><polyline style="fill:#EFAE0C;" points="249.5,305.6 303.9,249.6 280.7,229.6 249.5,181.6 249.5,184 249.5,181.6 " data-original="#EFAE0C" class=""/><polygon style="fill:#5E6664;" points="194.3,202.4 146.3,187.2 146.3,159.2 194.3,174.4 " data-original="#5E6664" class=""/><polyline style="fill:#2F423F;" points="194.3,174.4 194.3,202.4 146.3,187.2 " data-original="#2F423F" class=""/><ellipse style="fill:#6FEF3B" cx="168.7" cy="180.8" rx="13.6" ry="12" data-original="#7FD6EA" class="" data-old_color="#47FF00"/><path style="fill:#47FF00" d="M178.3,172c5.6,4.8,5.6,12,0,16.8s-13.6,4.8-19.2,0" data-original="#52C1DB" class="" data-old_color="#6FEF3B"/><polygon style="fill:#5E6664;" points="306.3,202.4 354.3,187.2 354.3,159.2 306.3,174.4 " data-original="#5E6664" class=""/><polyline style="fill:#2F423F;" points="306.3,174.4 306.3,202.4 354.3,187.2 " data-original="#2F423F" class=""/><ellipse style="fill:#6FEF3B" cx="331.1" cy="180.8" rx="13.6" ry="12" data-original="#7FD6EA" class="" data-old_color="#47FF00"/><path style="fill:#47FF00" d="M321.5,188.8c5.6,4.8,13.6,4.8,19.2,0s5.6-12,0-16.8" data-original="#52C1DB" class="" data-old_color="#6FEF3B"/><g>
	<polygon style="fill:#000000" points="51.1,413.6 82.3,392.8 87.9,421.6 115.9,408.8 124.7,436.8 150.3,421.6 162.3,452.8    188.7,434.4 203.1,469.6 226.3,447.2 250.3,500.8  " data-original="#725839" class="" data-old_color="#725839"/>
	<polygon style="fill:#000000" points="449.5,413.6 418.3,392.8 412.7,421.6 384.7,408.8 375.9,436.8 350.3,421.6 338.3,452.8    311.9,434.4 297.5,469.6 274.3,447.2 250.3,500.8  " data-original="#725839" class="" data-old_color="#725839"/>
</g></g> </svg>
